HIERARCHY
ROOT pelvis
{
  OFFSET 0 100 0
  CHANNELS 6 Xposition Yposition Zposition Zrotation Xrotation Yrotation
  JOINT pelvis_right_femur
  {
    OFFSET -10.78128 -3.44521 -0.5502486
    CHANNELS 3 Zrotation Xrotation Yrotation
    JOINT right_femur_tibia
    {
      OFFSET -0.8047443 -44.0398 -0.1307829
      CHANNELS 3 Zrotation Xrotation Yrotation
      JOINT right_tibia_foot
      {
        OFFSET 3.006224 -47.83518 -5
        CHANNELS 3 Zrotation Xrotation Yrotation
        End Site
        {
          OFFSET 0 -5 15
        }
      }
    }
  }
  JOINT pelvis_left_femur
  {
    OFFSET 10.78128 -3.44521 -0.5502486
    CHANNELS 3 Zrotation Xrotation Yrotation
    JOINT left_femur_tibia
    {
      OFFSET 0.8047443 -44.0398 -0.1307829
      CHANNELS 3 Zrotation Xrotation Yrotation
      JOINT left_tibia_foot
      {
        OFFSET -4.370144 -48.10324 -4.275266
        CHANNELS 3 Zrotation Xrotation Yrotation
        End Site
        {
          OFFSET 0 -5 15
        }
      }
    }
  }
  JOINT pelvis_spine1
  {
    OFFSET 0 6.468898 -3.129235
    CHANNELS 3 Zrotation Xrotation Yrotation
    JOINT spine1
    {
      OFFSET 0 23.15396 4.99043
      CHANNELS 3 Zrotation Xrotation Yrotation
      JOINT spine2
      {
        OFFSET 0 20.79997 -5.064912
        CHANNELS 3 Zrotation Xrotation Yrotation
        JOINT neck
        {
          OFFSET 0 14.38658 9.616178
          CHANNELS 3 Zrotation Xrotation Yrotation
          End Site
          {
            OFFSET 0 20 0
          }
        }
      }
      JOINT right_manubrium
      {
        OFFSET -5.722621 16.35077 3.967754
        CHANNELS 3 Zrotation Xrotation Yrotation
        JOINT right_clavicle
        {
          OFFSET -13.16364 1.694482 -4.693211
          CHANNELS 3 Zrotation Xrotation Yrotation
          JOINT right_humerus
          {
            OFFSET -28.5034 -0.3100689 -2.792744
            CHANNELS 3 Zrotation Xrotation Yrotation
            JOINT right_radius
            {
              OFFSET -25.15693 0.02248979 -1.271978
              CHANNELS 3 Zrotation Xrotation Yrotation
              End Site
              {
                OFFSET -15 0 0
              }
            }
          }
        }
      }
      JOINT left_manubrium
      {
        OFFSET 5.722621 16.35077 3.967754
        CHANNELS 3 Zrotation Xrotation Yrotation
        JOINT left_clavicle
        {
          OFFSET 13.16364 1.694482 -4.693211
          CHANNELS 3 Zrotation Xrotation Yrotation
          JOINT left_humerus
          {
            OFFSET 29.39168 -1.063119 -2.237045
            CHANNELS 3 Zrotation Xrotation Yrotation
            JOINT left_radius
            {
              OFFSET 24.59957 -0.9528479 0.9047498
              CHANNELS 3 Zrotation Xrotation Yrotation
              End Site
              {
                OFFSET 15 -0 -0
              }
            }
          }
        }
      }
    }
  }
}
MOTION
Frames: 21
Frame Time: 0.0416666666667
486.4323 106.2464 3108.44 0.1330513 -13.21754 1.421018 4.005909 17.99047 -9.626032 -0 28.95694 -0 -12.24266 5.417107 3.120882 -1.815602 -8.889725 -9.951283 -0 13.0892 -0 -3.346997 -6.35517 15.49824 0.2899203 -3.348376 2.596314 -0.8535134 11.78397 -1.320193 3.790349 27.16259 2.309451 1.112562 -17.6334 6.456369 -4.879049 -24.77586 10.62902 92.02513 0.1989938 -6.507522 -0 0 17.63934 -29.87933 9.728534 18.16965 4.688625 -18.97859 -8.229069 -102.1683 20.23728 30.92592 -0 0 7.472993 3.929876 27.41817 5.789248
487.4735 106.2409 3114.731 0.133459 -13.21753 1.422801 4.005909 17.99047 -9.626032 -0 28.95694 -0 -12.24266 5.417107 3.120882 -1.815602 -8.889725 -9.951283 -0 13.0892 -0 -3.346997 -6.35517 15.49824 0.2899203 -3.348376 2.596314 -0.8535134 11.78397 -1.320193 3.790349 27.16259 2.309451 1.112562 -17.6334 6.456369 -4.879049 -24.77586 10.62902 92.02513 0.1989938 -6.507522 -0 0 17.63934 -29.87933 9.728534 18.16965 4.688625 -18.97859 -8.229069 -102.1683 20.23728 30.92592 -0 0 7.472993 3.929876 27.41817 5.789248
488.5148 106.2354 3121.021 0.1338668 -13.21753 1.424585 4.005909 17.99047 -9.626032 -0 28.95694 -0 -12.24266 5.417107 3.120882 -1.815602 -8.889725 -9.951283 -0 13.0892 -0 -3.346997 -6.35517 15.49824 0.2899203 -3.348376 2.596314 -0.8535134 11.78397 -1.320193 3.790349 27.16259 2.309451 1.112562 -17.6334 6.456369 -4.879049 -24.77586 10.62902 92.02513 0.1989938 -6.507522 -0 0 17.63934 -29.87933 9.728534 18.16965 4.688625 -18.97859 -8.229069 -102.1683 20.23728 30.92592 -0 0 7.472993 3.929876 27.41817 5.789248
489.5563 106.2299 3127.312 0.1342745 -13.21753 1.426368 4.005909 17.99047 -9.626032 -0 28.95694 -0 -12.24266 5.417107 3.120882 -1.815602 -8.889725 -9.951283 -0 13.0892 -0 -3.346997 -6.35517 15.49824 0.2899203 -3.348376 2.596314 -0.8535134 11.78397 -1.320193 3.790349 27.16259 2.309451 1.112562 -17.6334 6.456369 -4.879049 -24.77586 10.62902 92.02513 0.1989938 -6.507522 -0 0 17.63934 -29.87933 9.728534 18.16965 4.688625 -18.97859 -8.229069 -102.1683 20.23728 30.92592 -0 0 7.472993 3.929876 27.41817 5.789248
490.598 106.2244 3133.602 0.1346823 -13.21752 1.428151 4.005909 17.99047 -9.626032 -0 28.95694 -0 -12.24266 5.417107 3.120882 -1.815602 -8.889725 -9.951283 -0 13.0892 -0 -3.346997 -6.35517 15.49824 0.2899203 -3.348376 2.596314 -0.8535134 11.78397 -1.320193 3.790349 27.16259 2.309451 1.112562 -17.6334 6.456369 -4.879049 -24.77586 10.62902 92.02513 0.1989938 -6.507522 -0 0 17.63934 -29.87933 9.728534 18.16965 4.688625 -18.97859 -8.229069 -102.1683 20.23728 30.92592 -0 0 7.472993 3.929876 27.41817 5.789248
491.6399 106.219 3139.893 0.13509 -13.21752 1.429935 4.005909 17.99047 -9.626032 -0 28.95694 -0 -12.24266 5.417107 3.120882 -1.815602 -8.889725 -9.951283 -0 13.0892 -0 -3.346997 -6.35517 15.49824 0.2899203 -3.348376 2.596314 -0.8535134 11.78397 -1.320193 3.790349 27.16259 2.309451 1.112562 -17.6334 6.456369 -4.879049 -24.77586 10.62902 92.02513 0.1989938 -6.507522 -0 0 17.63934 -29.87933 9.728534 18.16965 4.688625 -18.97859 -8.229069 -102.1683 20.23728 30.92592 -0 0 7.472993 3.929876 27.41817 5.789248
492.682 106.2135 3146.183 0.1354978 -13.21751 1.431718 4.005909 17.99047 -9.626032 -0 28.95694 -0 -12.24266 5.417107 3.120882 -1.815602 -8.889725 -9.951283 -0 13.0892 -0 -3.346997 -6.35517 15.49824 0.2899203 -3.348376 2.596314 -0.8535134 11.78397 -1.320193 3.790349 27.16259 2.309451 1.112562 -17.6334 6.456369 -4.879049 -24.77586 10.62902 92.02513 0.1989938 -6.507522 -0 0 17.63934 -29.87933 9.728534 18.16965 4.688625 -18.97859 -8.229069 -102.1683 20.23728 30.92592 -0 0 7.472993 3.929876 27.41817 5.789248
493.7243 106.208 3152.473 0.1359056 -13.21751 1.433501 4.005909 17.99047 -9.626032 -0 28.95694 -0 -12.24266 5.417107 3.120882 -1.815602 -8.889725 -9.951283 -0 13.0892 -0 -3.346997 -6.35517 15.49824 0.2899203 -3.348376 2.596314 -0.8535134 11.78397 -1.320193 3.790349 27.16259 2.309451 1.112562 -17.6334 6.456369 -4.879049 -24.77586 10.62902 92.02513 0.1989938 -6.507522 -0 0 17.63934 -29.87933 9.728534 18.16965 4.688625 -18.97859 -8.229069 -102.1683 20.23728 30.92592 -0 0 7.472993 3.929876 27.41817 5.789248
494.7668 106.2025 3158.764 0.1363133 -13.2175 1.435285 4.005909 17.99047 -9.626032 -0 28.95694 -0 -12.24266 5.417107 3.120882 -1.815602 -8.889725 -9.951283 -0 13.0892 -0 -3.346997 -6.35517 15.49824 0.2899203 -3.348376 2.596314 -0.8535134 11.78397 -1.320193 3.790349 27.16259 2.309451 1.112562 -17.6334 6.456369 -4.879049 -24.77586 10.62902 92.02513 0.1989938 -6.507522 -0 0 17.63934 -29.87933 9.728534 18.16965 4.688625 -18.97859 -8.229069 -102.1683 20.23728 30.92592 -0 0 7.472993 3.929876 27.41817 5.789248
495.8094 106.197 3165.054 0.1367211 -13.2175 1.437068 4.005909 17.99047 -9.626032 -0 28.95694 -0 -12.24266 5.417107 3.120882 -1.815602 -8.889725 -9.951283 -0 13.0892 -0 -3.346997 -6.35517 15.49824 0.2899203 -3.348376 2.596314 -0.8535134 11.78397 -1.320193 3.790349 27.16259 2.309451 1.112562 -17.6334 6.456369 -4.879049 -24.77586 10.62902 92.02513 0.1989938 -6.507522 -0 0 17.63934 -29.87933 9.728534 18.16965 4.688625 -18.97859 -8.229069 -102.1683 20.23728 30.92592 -0 0 7.472993 3.929876 27.41817 5.789248
496.8523 106.1916 3171.344 0.1371288 -13.2175 1.438851 4.005909 17.99047 -9.626032 -0 28.95694 -0 -12.24266 5.417107 3.120882 -1.815602 -8.889725 -9.951283 -0 13.0892 -0 -3.346997 -6.35517 15.49824 0.2899203 -3.348376 2.596314 -0.8535134 11.78397 -1.320193 3.790349 27.16259 2.309451 1.112562 -17.6334 6.456369 -4.879049 -24.77586 10.62902 92.02513 0.1989938 -6.507522 -0 0 17.63934 -29.87933 9.728534 18.16965 4.688625 -18.97859 -8.229069 -102.1683 20.23728 30.92592 -0 0 7.472993 3.929876 27.41817 5.789248
497.8953 106.1861 3177.634 0.1375366 -13.21749 1.440634 4.005909 17.99047 -9.626032 -0 28.95694 -0 -12.24266 5.417107 3.120882 -1.815602 -8.889725 -9.951283 -0 13.0892 -0 -3.346997 -6.35517 15.49824 0.2899203 -3.348376 2.596314 -0.8535134 11.78397 -1.320193 3.790349 27.16259 2.309451 1.112562 -17.6334 6.456369 -4.879049 -24.77586 10.62902 92.02513 0.1989938 -6.507522 -0 0 17.63934 -29.87933 9.728534 18.16965 4.688625 -18.97859 -8.229069 -102.1683 20.23728 30.92592 -0 0 7.472993 3.929876 27.41817 5.789248
498.9386 106.1806 3183.924 0.1379443 -13.21749 1.442418 4.005909 17.99047 -9.626032 -0 28.95694 -0 -12.24266 5.417107 3.120882 -1.815602 -8.889725 -9.951283 -0 13.0892 -0 -3.346997 -6.35517 15.49824 0.2899203 -3.348376 2.596314 -0.8535134 11.78397 -1.320193 3.790349 27.16259 2.309451 1.112562 -17.6334 6.456369 -4.879049 -24.77586 10.62902 92.02513 0.1989938 -6.507522 -0 0 17.63934 -29.87933 9.728534 18.16965 4.688625 -18.97859 -8.229069 -102.1683 20.23728 30.92592 -0 0 7.472993 3.929876 27.41817 5.789248
499.982 106.1751 3190.214 0.1383521 -13.21748 1.444201 4.005909 17.99047 -9.626032 -0 28.95694 -0 -12.24266 5.417107 3.120882 -1.815602 -8.889725 -9.951283 -0 13.0892 -0 -3.346997 -6.35517 15.49824 0.2899203 -3.348376 2.596314 -0.8535134 11.78397 -1.320193 3.790349 27.16259 2.309451 1.112562 -17.6334 6.456369 -4.879049 -24.77586 10.62902 92.02513 0.1989938 -6.507522 -0 0 17.63934 -29.87933 9.728534 18.16965 4.688625 -18.97859 -8.229069 -102.1683 20.23728 30.92592 -0 0 7.472993 3.929876 27.41817 5.789248
501.0256 106.1696 3196.505 0.1387598 -13.21748 1.445984 4.005909 17.99047 -9.626032 -0 28.95694 -0 -12.24266 5.417107 3.120882 -1.815602 -8.889725 -9.951283 -0 13.0892 -0 -3.346997 -6.35517 15.49824 0.2899203 -3.348376 2.596314 -0.8535134 11.78397 -1.320193 3.790349 27.16259 2.309451 1.112562 -17.6334 6.456369 -4.879049 -24.77586 10.62902 92.02513 0.1989938 -6.507522 -0 0 17.63934 -29.87933 9.728534 18.16965 4.688625 -18.97859 -8.229069 -102.1683 20.23728 30.92592 -0 0 7.472993 3.929876 27.41817 5.789248
502.0694 106.1642 3202.795 0.1391676 -13.21748 1.447768 4.005909 17.99047 -9.626032 -0 28.95694 -0 -12.24266 5.417107 3.120882 -1.815602 -8.889725 -9.951283 -0 13.0892 -0 -3.346997 -6.35517 15.49824 0.2899203 -3.348376 2.596314 -0.8535134 11.78397 -1.320193 3.790349 27.16259 2.309451 1.112562 -17.6334 6.456369 -4.879049 -24.77586 10.62902 92.02513 0.1989938 -6.507522 -0 0 17.63934 -29.87933 9.728534 18.16965 4.688625 -18.97859 -8.229069 -102.1683 20.23728 30.92592 -0 0 7.472993 3.929876 27.41817 5.789248
503.1134 106.1587 3209.085 0.1395753 -13.21747 1.449551 4.005909 17.99047 -9.626032 -0 28.95694 -0 -12.24266 5.417107 3.120882 -1.815602 -8.889725 -9.951283 -0 13.0892 -0 -3.346997 -6.35517 15.49824 0.2899203 -3.348376 2.596314 -0.8535134 11.78397 -1.320193 3.790349 27.16259 2.309451 1.112562 -17.6334 6.456369 -4.879049 -24.77586 10.62902 92.02513 0.1989938 -6.507522 -0 0 17.63934 -29.87933 9.728534 18.16965 4.688625 -18.97859 -8.229069 -102.1683 20.23728 30.92592 -0 0 7.472993 3.929876 27.41817 5.789248
504.1576 106.1532 3215.375 0.1399831 -13.21747 1.451334 4.005909 17.99047 -9.626032 -0 28.95694 -0 -12.24266 5.417107 3.120882 -1.815602 -8.889725 -9.951283 -0 13.0892 -0 -3.346997 -6.35517 15.49824 0.2899203 -3.348376 2.596314 -0.8535134 11.78397 -1.320193 3.790349 27.16259 2.309451 1.112562 -17.6334 6.456369 -4.879049 -24.77586 10.62902 92.02513 0.1989938 -6.507522 -0 0 17.63934 -29.87933 9.728534 18.16965 4.688625 -18.97859 -8.229069 -102.1683 20.23728 30.92592 -0 0 7.472993 3.929876 27.41817 5.789248
505.202 106.1477 3221.665 0.1403908 -13.21746 1.453118 4.005909 17.99047 -9.626032 -0 28.95694 -0 -12.24266 5.417107 3.120882 -1.815602 -8.889725 -9.951283 -0 13.0892 -0 -3.346997 -6.35517 15.49824 0.2899203 -3.348376 2.596314 -0.8535134 11.78397 -1.320193 3.790349 27.16259 2.309451 1.112562 -17.6334 6.456369 -4.879049 -24.77586 10.62902 92.02513 0.1989938 -6.507522 -0 0 17.63934 -29.87933 9.728534 18.16965 4.688625 -18.97859 -8.229069 -102.1683 20.23728 30.92592 -0 0 7.472993 3.929876 27.41817 5.789248
506.2466 106.1422 3227.955 0.1407986 -13.21746 1.454901 4.005909 17.99047 -9.626032 -0 28.95694 -0 -12.24266 5.417107 3.120882 -1.815602 -8.889725 -9.951283 -0 13.0892 -0 -3.346997 -6.35517 15.49824 0.2899203 -3.348376 2.596314 -0.8535134 11.78397 -1.320193 3.790349 27.16259 2.309451 1.112562 -17.6334 6.456369 -4.879049 -24.77586 10.62902 92.02513 0.1989938 -6.507522 -0 0 17.63934 -29.87933 9.728534 18.16965 4.688625 -18.97859 -8.229069 -102.1683 20.23728 30.92592 -0 0 7.472993 3.929876 27.41817 5.789248
507.2913 106.1367 3234.245 0.1412063 -13.21745 1.456684 4.005909 17.99047 -9.626032 -0 28.95694 -0 -12.24266 5.417107 3.120882 -1.815602 -8.889725 -9.951283 -0 13.0892 -0 -3.346997 -6.35517 15.49824 0.2899203 -3.348376 2.596314 -0.8535134 11.78397 -1.320193 3.790349 27.16259 2.309451 1.112562 -17.6334 6.456369 -4.879049 -24.77586 10.62902 92.02513 0.1989938 -6.507522 -0 0 17.63934 -29.87933 9.728534 18.16965 4.688625 -18.97859 -8.229069 -102.1683 20.23728 30.92592 -0 0 7.472993 3.929876 27.41817 5.789248
